<mxfile host="Electron" modified="2024-03-11T15:12:25.696Z" agent="Mozilla/5.0 (X11; Linux x86_64) AppleWebKit/537.36 (KHTML, like Gecko) draw.io/24.0.4 Chrome/120.0.6099.109 Electron/28.1.0 Safari/537.36" etag="n6xlB2GLTaJc44RPcMav" version="24.0.4" type="device">
  <diagram name="Page-1" id="OPIE55NbvPAnDb1O-zfZ">
    <mxGraphModel dx="2214" dy="838" grid="1" gridSize="10" guides="1" tooltips="1" connect="1" arrows="1" fold="1" page="1" pageScale="1" pageWidth="850" pageHeight="1100" math="0" shadow="0">
      <root>
        <mxCell id="0" />
        <mxCell id="1" parent="0" />
        <mxCell id="CcGVetBTI_zZLXbvXHKX-16" value="" style="rounded=0;whiteSpace=wrap;html=1;" parent="1" vertex="1">
          <mxGeometry x="-70" width="870" height="570" as="geometry" />
        </mxCell>
        <mxCell id="CcGVetBTI_zZLXbvXHKX-1" value="" style="rounded=0;whiteSpace=wrap;html=1;connectable=0;" parent="1" vertex="1">
          <mxGeometry x="80" y="120" width="680" height="400" as="geometry" />
        </mxCell>
        <mxCell id="CcGVetBTI_zZLXbvXHKX-2" value="" style="rounded=0;whiteSpace=wrap;html=1;connectable=0;fillColor=#ffe6cc;strokeColor=#d79b00;" parent="1" vertex="1">
          <mxGeometry x="720" y="120" width="40" height="400" as="geometry" />
        </mxCell>
        <mxCell id="CcGVetBTI_zZLXbvXHKX-3" value="" style="ellipse;whiteSpace=wrap;html=1;aspect=fixed;fillColor=#0000CC;" parent="1" vertex="1">
          <mxGeometry x="380" y="360" width="20" height="20" as="geometry" />
        </mxCell>
        <mxCell id="CcGVetBTI_zZLXbvXHKX-4" value="" style="endArrow=classic;startArrow=classic;html=1;rounded=0;" parent="1" edge="1">
          <mxGeometry width="50" height="50" relative="1" as="geometry">
            <mxPoint x="390" y="360" as="sourcePoint" />
            <mxPoint x="390" y="120" as="targetPoint" />
          </mxGeometry>
        </mxCell>
        <mxCell id="CcGVetBTI_zZLXbvXHKX-7" value="" style="endArrow=classic;startArrow=classic;html=1;rounded=0;" parent="1" edge="1">
          <mxGeometry width="50" height="50" relative="1" as="geometry">
            <mxPoint x="120" y="370" as="sourcePoint" />
            <mxPoint x="380" y="370" as="targetPoint" />
          </mxGeometry>
        </mxCell>
        <mxCell id="CcGVetBTI_zZLXbvXHKX-8" value="" style="rounded=0;whiteSpace=wrap;html=1;fillColor=#f5f5f5;fontColor=#333333;strokeColor=#666666;" parent="1" vertex="1">
          <mxGeometry x="120" y="440" width="600" height="80" as="geometry" />
        </mxCell>
        <mxCell id="CcGVetBTI_zZLXbvXHKX-9" value="" style="endArrow=classic;startArrow=classic;html=1;rounded=0;" parent="1" edge="1">
          <mxGeometry width="50" height="50" relative="1" as="geometry">
            <mxPoint x="70" y="520" as="sourcePoint" />
            <mxPoint x="70" y="440" as="targetPoint" />
          </mxGeometry>
        </mxCell>
        <mxCell id="CcGVetBTI_zZLXbvXHKX-10" value="autoScrollBarHeight" style="text;html=1;align=center;verticalAlign=middle;whiteSpace=wrap;rounded=0;" parent="1" vertex="1">
          <mxGeometry x="-50" y="470" width="120" height="20" as="geometry" />
        </mxCell>
        <mxCell id="CcGVetBTI_zZLXbvXHKX-11" value="" style="rounded=0;whiteSpace=wrap;html=1;connectable=0;fillColor=#e1d5e7;strokeColor=#9673a6;" parent="1" vertex="1">
          <mxGeometry x="80" y="120" width="40" height="400" as="geometry" />
        </mxCell>
        <mxCell id="CcGVetBTI_zZLXbvXHKX-12" value="Houers" style="text;html=1;align=center;verticalAlign=middle;whiteSpace=wrap;rounded=0;rotation=-90;" parent="1" vertex="1">
          <mxGeometry x="70" y="305" width="60" height="30" as="geometry" />
        </mxCell>
        <mxCell id="CcGVetBTI_zZLXbvXHKX-13" value="" style="ellipse;whiteSpace=wrap;html=1;aspect=fixed;fillColor=#f8cecc;strokeColor=#b85450;opacity=50;" parent="1" vertex="1">
          <mxGeometry x="110" y="110" width="20" height="20" as="geometry" />
        </mxCell>
        <mxCell id="CcGVetBTI_zZLXbvXHKX-14" value="origin: details.localPosition" style="text;html=1;align=center;verticalAlign=middle;whiteSpace=wrap;rounded=0;fillColor=#f8cecc;strokeColor=#b85450;opacity=50;" parent="1" vertex="1">
          <mxGeometry x="120" y="99" width="170" height="20" as="geometry" />
        </mxCell>
        <mxCell id="CcGVetBTI_zZLXbvXHKX-15" value="_scrollController.offset (origin: scrollbar at the top)" style="text;html=1;align=center;verticalAlign=middle;whiteSpace=wrap;rounded=0;fillColor=#ffe6cc;strokeColor=#d79b00;" parent="1" vertex="1">
          <mxGeometry x="760" y="120" width="270" height="20" as="geometry" />
        </mxCell>
        <mxCell id="CcGVetBTI_zZLXbvXHKX-17" value="background" style="text;html=1;align=center;verticalAlign=middle;whiteSpace=wrap;rounded=0;" parent="1" vertex="1">
          <mxGeometry x="-70" width="80" height="20" as="geometry" />
        </mxCell>
      </root>
    </mxGraphModel>
  </diagram>
</mxfile>
